<?xml version="1.0" encoding="UTF-8" standalone="no"?>
<!DOCTYPE svg PUBLIC "-//W3C//DTD SVG 1.1//EN"
 "http://www.w3.org/Graphics/SVG/1.1/DTD/svg11.dtd">
<!-- Generated by graphviz version 2.47.0 (20210316.0004)
 -->
<!-- Title: dependencies Pages: 1 -->
<svg width="504pt" height="287pt"
 viewBox="0.00 0.00 504.00 287.00" xmlns="http://www.w3.org/2000/svg" xmlns:xlink="http://www.w3.org/1999/xlink">
<g id="graph0" class="graph" transform="scale(1 1) rotate(0) translate(4 283)">
<title>dependencies</title>
<polygon fill="white" stroke="transparent" points="-4,4 -4,-283 500,-283 500,4 -4,4"/>
<text text-anchor="start" x="227.01" y="-42.4" font-family="Times-12" font-weight="bold" font-size="14.00">Legend</text>
<polygon fill="#ffffb3" stroke="transparent" points="14,-10 14,-30 34,-30 34,-10 14,-10"/>
<text text-anchor="start" x="37.63" y="-15.4" font-family="Times-12" font-size="14.00"> &#160;Declarations</text>
<polygon fill="#8dd3c7" stroke="transparent" points="127,-10 127,-30 147,-30 147,-10 127,-10"/>
<text text-anchor="start" x="150.73" y="-15.4" font-family="Times-12" font-size="14.00"> &#160;Module</text>
<polygon fill="#80b1d3" stroke="transparent" points="213,-10 213,-30 233,-30 233,-10 213,-10"/>
<text text-anchor="start" x="236.78" y="-15.4" font-family="Times-12" font-size="14.00"> &#160;Bootstrap</text>
<polygon fill="#fdb462" stroke="transparent" points="310,-10 310,-30 330,-30 330,-10 310,-10"/>
<text text-anchor="start" x="333.67" y="-15.4" font-family="Times-12" font-size="14.00"> &#160;Providers</text>
<polygon fill="#fb8072" stroke="transparent" points="406,-10 406,-30 426,-30 426,-10 406,-10"/>
<text text-anchor="start" x="429.73" y="-15.4" font-family="Times-12" font-size="14.00"> &#160;Exports</text>
<g id="clust1" class="cluster">
<title>cluster_AppModule</title>
<polygon fill="none" stroke="black" stroke-dasharray="1,5" points="64,-146 64,-271 432,-271 432,-146 64,-146"/>
</g>
<g id="clust3" class="cluster">
<title>cluster_AppModule_imports</title>
<polygon fill="none" stroke="black" points="210,-154 210,-206 424,-206 424,-154 210,-154"/>
</g>
<g id="clust6" class="cluster">
<title>cluster_AppModule_providers</title>
<polygon fill="none" stroke="black" points="72,-154 72,-206 202,-206 202,-154 72,-154"/>
</g>
<g id="clust13" class="cluster">
<title>cluster_PostModule</title>
<polygon fill="none" stroke="black" stroke-dasharray="1,5" points="187,-70 187,-138 333,-138 333,-70 187,-70"/>
</g>
<g id="clust18" class="cluster">
<title>cluster_PostModule_providers</title>
<polygon fill="none" stroke="black" points="195,-78 195,-130 325,-130 325,-78 195,-78"/>
</g>
<!-- HealthModule -->
<g id="node1" class="node">
<title>HealthModule</title>
<polygon fill="#8dd3c7" stroke="black" points="416.37,-198 413.37,-202 392.37,-202 389.37,-198 319.63,-198 319.63,-162 416.37,-162 416.37,-198"/>
<text text-anchor="middle" x="368" y="-175.8" font-family="Times,serif" font-size="14.00">HealthModule</text>
</g>
<!-- AppModule -->
<g id="node3" class="node">
<title>AppModule</title>
<polygon fill="#8dd3c7" stroke="black" points="301.66,-263 298.66,-267 277.66,-267 274.66,-263 218.34,-263 218.34,-227 301.66,-227 301.66,-263"/>
<text text-anchor="middle" x="260" y="-240.8" font-family="Times,serif" font-size="14.00">AppModule</text>
</g>
<!-- HealthModule&#45;&gt;AppModule -->
<g id="edge1" class="edge">
<title>HealthModule&#45;&gt;AppModule</title>
<path fill="none" stroke="black" d="M368,-198.11C368,-217.34 368,-245 368,-245 368,-245 311.76,-245 311.76,-245"/>
<polygon fill="black" stroke="black" points="311.76,-241.5 301.76,-245 311.76,-248.5 311.76,-241.5"/>
</g>
<!-- PostModule -->
<g id="node2" class="node">
<title>PostModule</title>
<polygon fill="#8dd3c7" stroke="black" points="301.67,-198 298.67,-202 277.67,-202 274.67,-198 218.33,-198 218.33,-162 301.67,-162 301.67,-198"/>
<text text-anchor="middle" x="260" y="-175.8" font-family="Times,serif" font-size="14.00">PostModule</text>
</g>
<!-- PostModule&#45;&gt;AppModule -->
<g id="edge2" class="edge">
<title>PostModule&#45;&gt;AppModule</title>
<path fill="none" stroke="black" d="M260,-198.11C260,-198.11 260,-216.99 260,-216.99"/>
<polygon fill="black" stroke="black" points="256.5,-216.99 260,-226.99 263.5,-216.99 256.5,-216.99"/>
</g>
<!-- AppService -->
<g id="node4" class="node">
<title>AppService</title>
<ellipse fill="#fdb462" stroke="black" cx="137" cy="-180" rx="56.74" ry="18"/>
<text text-anchor="middle" x="137" y="-175.8" font-family="Times,serif" font-size="14.00">AppService</text>
</g>
<!-- AppService&#45;&gt;AppModule -->
<g id="edge3" class="edge">
<title>AppService&#45;&gt;AppModule</title>
<path fill="none" stroke="black" d="M137,-198.11C137,-217.34 137,-245 137,-245 137,-245 208.01,-245 208.01,-245"/>
<polygon fill="black" stroke="black" points="208.01,-248.5 218.01,-245 208.01,-241.5 208.01,-248.5"/>
</g>
<!-- PostService -->
<g id="node5" class="node">
<title>PostService</title>
<ellipse fill="#fdb462" stroke="black" cx="260" cy="-104" rx="56.76" ry="18"/>
<text text-anchor="middle" x="260" y="-99.8" font-family="Times,serif" font-size="14.00">PostService</text>
</g>
<!-- PostService&#45;&gt;PostModule -->
<g id="edge4" class="edge">
<title>PostService&#45;&gt;PostModule</title>
<path fill="none" stroke="black" d="M260,-122.01C260,-122.01 260,-151.85 260,-151.85"/>
<polygon fill="black" stroke="black" points="256.5,-151.85 260,-161.85 263.5,-151.85 256.5,-151.85"/>
</g>
</g>
</svg>
