<?xml version="1.0" encoding="UTF-8" standalone="no"?>
<!DOCTYPE svg PUBLIC "-//W3C//DTD SVG 1.1//EN"
 "http://www.w3.org/Graphics/SVG/1.1/DTD/svg11.dtd">
<!-- Generated by graphviz version 2.47.0 (20210316.0004)
 -->
<!-- Title: dependencies Pages: 1 -->
<svg width="1168pt" height="363pt"
 viewBox="0.00 0.00 1168.00 363.00" xmlns="http://www.w3.org/2000/svg" xmlns:xlink="http://www.w3.org/1999/xlink">
<g id="graph0" class="graph" transform="scale(1 1) rotate(0) translate(4 359)">
<title>dependencies</title>
<polygon fill="white" stroke="transparent" points="-4,4 -4,-359 1164,-359 1164,4 -4,4"/>
<text text-anchor="start" x="559.01" y="-42.4" font-family="Times-12" font-weight="bold" font-size="14.00">Legend</text>
<polygon fill="#ffffb3" stroke="transparent" points="346,-10 346,-30 366,-30 366,-10 346,-10"/>
<text text-anchor="start" x="369.63" y="-15.4" font-family="Times-12" font-size="14.00"> &#160;Declarations</text>
<polygon fill="#8dd3c7" stroke="transparent" points="459,-10 459,-30 479,-30 479,-10 459,-10"/>
<text text-anchor="start" x="482.73" y="-15.4" font-family="Times-12" font-size="14.00"> &#160;Module</text>
<polygon fill="#80b1d3" stroke="transparent" points="545,-10 545,-30 565,-30 565,-10 545,-10"/>
<text text-anchor="start" x="568.78" y="-15.4" font-family="Times-12" font-size="14.00"> &#160;Bootstrap</text>
<polygon fill="#fdb462" stroke="transparent" points="642,-10 642,-30 662,-30 662,-10 642,-10"/>
<text text-anchor="start" x="665.67" y="-15.4" font-family="Times-12" font-size="14.00"> &#160;Providers</text>
<polygon fill="#fb8072" stroke="transparent" points="738,-10 738,-30 758,-30 758,-10 738,-10"/>
<text text-anchor="start" x="761.73" y="-15.4" font-family="Times-12" font-size="14.00"> &#160;Exports</text>
<g id="clust1" class="cluster">
<title>cluster_AppModule</title>
<polygon fill="none" stroke="black" stroke-dasharray="1,5" points="412,-146 412,-347 884,-347 884,-146 412,-146"/>
</g>
<g id="clust3" class="cluster">
<title>cluster_AppModule_imports</title>
<polygon fill="none" stroke="black" points="558,-154 558,-282 876,-282 876,-154 558,-154"/>
</g>
<g id="clust6" class="cluster">
<title>cluster_AppModule_providers</title>
<polygon fill="none" stroke="black" points="420,-230 420,-282 550,-282 550,-230 420,-230"/>
</g>
<g id="clust7" class="cluster">
<title>cluster_AuthModule</title>
<polygon fill="none" stroke="black" stroke-dasharray="1,5" points="8,-146 8,-214 404,-214 404,-146 8,-146"/>
</g>
<g id="clust10" class="cluster">
<title>cluster_AuthModule_exports</title>
<polygon fill="none" stroke="black" points="290,-154 290,-206 396,-206 396,-154 290,-154"/>
</g>
<g id="clust12" class="cluster">
<title>cluster_AuthModule_providers</title>
<polygon fill="none" stroke="black" points="16,-154 16,-206 282,-206 282,-154 16,-154"/>
</g>
<g id="clust19" class="cluster">
<title>cluster_PostModule</title>
<polygon fill="none" stroke="black" stroke-dasharray="1,5" points="649,-70 649,-138 795,-138 795,-70 649,-70"/>
</g>
<g id="clust24" class="cluster">
<title>cluster_PostModule_providers</title>
<polygon fill="none" stroke="black" points="657,-78 657,-130 787,-130 787,-78 657,-78"/>
</g>
<g id="clust25" class="cluster">
<title>cluster_UserModule</title>
<polygon fill="none" stroke="black" stroke-dasharray="1,5" points="892,-222 892,-290 1152,-290 1152,-222 892,-222"/>
</g>
<g id="clust28" class="cluster">
<title>cluster_UserModule_exports</title>
<polygon fill="none" stroke="black" points="1040,-230 1040,-282 1144,-282 1144,-230 1040,-230"/>
</g>
<g id="clust30" class="cluster">
<title>cluster_UserModule_providers</title>
<polygon fill="none" stroke="black" points="900,-230 900,-282 1032,-282 1032,-230 900,-230"/>
</g>
<!-- AuthModule -->
<g id="node1" class="node">
<title>AuthModule</title>
<polygon fill="#8dd3c7" stroke="black" points="653.55,-274 650.55,-278 629.55,-278 626.55,-274 566.45,-274 566.45,-238 653.55,-238 653.55,-274"/>
<text text-anchor="middle" x="610" y="-251.8" font-family="Times,serif" font-size="14.00">AuthModule</text>
</g>
<!-- AppModule -->
<g id="node5" class="node">
<title>AppModule</title>
<polygon fill="#8dd3c7" stroke="black" points="714.66,-339 711.66,-343 690.66,-343 687.66,-339 631.34,-339 631.34,-303 714.66,-303 714.66,-339"/>
<text text-anchor="middle" x="673" y="-316.8" font-family="Times,serif" font-size="14.00">AppModule</text>
</g>
<!-- AuthModule&#45;&gt;AppModule -->
<g id="edge1" class="edge">
<title>AuthModule&#45;&gt;AppModule</title>
<path fill="none" stroke="black" d="M642.47,-274.11C642.47,-274.11 642.47,-292.99 642.47,-292.99"/>
<polygon fill="black" stroke="black" points="638.97,-292.99 642.47,-302.99 645.97,-292.99 638.97,-292.99"/>
</g>
<!-- AuthService  -->
<g id="node7" class="node">
<title>AuthService </title>
<polygon fill="#fb8072" stroke="black" points="387.98,-198 298.02,-198 298.02,-162 387.98,-162 387.98,-198"/>
<text text-anchor="middle" x="343" y="-175.8" font-family="Times,serif" font-size="14.00">AuthService </text>
</g>
<!-- AuthModule&#45;&gt;AuthService  -->
<g id="edge7" class="edge">
<title>AuthModule&#45;&gt;AuthService </title>
<path fill="none" stroke="black" stroke-dasharray="5,2" d="M566.39,-256C558.96,-256 553.59,-256 553.59,-256 553.59,-256 553.59,-180 553.59,-180 553.59,-180 397.92,-180 397.92,-180"/>
<polygon fill="black" stroke="black" points="397.92,-176.5 387.92,-180 397.92,-183.5 397.92,-176.5"/>
</g>
<!-- HealthModule -->
<g id="node2" class="node">
<title>HealthModule</title>
<polygon fill="#8dd3c7" stroke="black" points="662.37,-198 659.37,-202 638.37,-202 635.37,-198 565.63,-198 565.63,-162 662.37,-162 662.37,-198"/>
<text text-anchor="middle" x="614" y="-175.8" font-family="Times,serif" font-size="14.00">HealthModule</text>
</g>
<!-- HealthModule&#45;&gt;AppModule -->
<g id="edge2" class="edge">
<title>HealthModule&#45;&gt;AppModule</title>
<path fill="none" stroke="black" d="M658.1,-198.14C658.1,-198.14 658.1,-292.93 658.1,-292.93"/>
<polygon fill="black" stroke="black" points="654.6,-292.92 658.1,-302.93 661.6,-292.93 654.6,-292.92"/>
</g>
<!-- PostModule -->
<g id="node3" class="node">
<title>PostModule</title>
<polygon fill="#8dd3c7" stroke="black" points="763.67,-198 760.67,-202 739.67,-202 736.67,-198 680.33,-198 680.33,-162 763.67,-162 763.67,-198"/>
<text text-anchor="middle" x="722" y="-175.8" font-family="Times,serif" font-size="14.00">PostModule</text>
</g>
<!-- PostModule&#45;&gt;AppModule -->
<g id="edge3" class="edge">
<title>PostModule&#45;&gt;AppModule</title>
<path fill="none" stroke="black" d="M697.5,-198.14C697.5,-198.14 697.5,-292.93 697.5,-292.93"/>
<polygon fill="black" stroke="black" points="694,-292.92 697.5,-302.93 701,-292.93 694,-292.92"/>
</g>
<!-- UserModule -->
<g id="node4" class="node">
<title>UserModule</title>
<polygon fill="#8dd3c7" stroke="black" points="867.98,-198 864.98,-202 843.98,-202 840.98,-198 782.02,-198 782.02,-162 867.98,-162 867.98,-198"/>
<text text-anchor="middle" x="825" y="-175.8" font-family="Times,serif" font-size="14.00">UserModule</text>
</g>
<!-- UserModule&#45;&gt;AuthModule -->
<g id="edge6" class="edge">
<title>UserModule&#45;&gt;AuthModule</title>
<path fill="none" stroke="black" d="M803.51,-198.03C803.51,-218.77 803.51,-250 803.51,-250 803.51,-250 663.91,-250 663.91,-250"/>
<polygon fill="black" stroke="black" points="663.91,-246.5 653.91,-250 663.91,-253.5 663.91,-246.5"/>
</g>
<!-- UserModule&#45;&gt;AppModule -->
<g id="edge4" class="edge">
<title>UserModule&#45;&gt;AppModule</title>
<path fill="none" stroke="black" d="M825,-198.14C825,-236.23 825,-321 825,-321 825,-321 724.94,-321 724.94,-321"/>
<polygon fill="black" stroke="black" points="724.94,-317.5 714.94,-321 724.94,-324.5 724.94,-317.5"/>
</g>
<!-- UserService  -->
<g id="node11" class="node">
<title>UserService </title>
<polygon fill="#fb8072" stroke="black" points="1135.9,-274 1048.1,-274 1048.1,-238 1135.9,-238 1135.9,-274"/>
<text text-anchor="middle" x="1092" y="-251.8" font-family="Times,serif" font-size="14.00">UserService </text>
</g>
<!-- UserModule&#45;&gt;UserService  -->
<g id="edge11" class="edge">
<title>UserModule&#45;&gt;UserService </title>
<path fill="none" stroke="black" stroke-dasharray="5,2" d="M868.19,-180C943.76,-180 1092,-180 1092,-180 1092,-180 1092,-227.99 1092,-227.99"/>
<polygon fill="black" stroke="black" points="1088.5,-227.99 1092,-237.99 1095.5,-227.99 1088.5,-227.99"/>
</g>
<!-- AppService -->
<g id="node6" class="node">
<title>AppService</title>
<ellipse fill="#fdb462" stroke="black" cx="485" cy="-256" rx="56.74" ry="18"/>
<text text-anchor="middle" x="485" y="-251.8" font-family="Times,serif" font-size="14.00">AppService</text>
</g>
<!-- AppService&#45;&gt;AppModule -->
<g id="edge5" class="edge">
<title>AppService&#45;&gt;AppModule</title>
<path fill="none" stroke="black" d="M485,-274.11C485,-293.34 485,-321 485,-321 485,-321 621.28,-321 621.28,-321"/>
<polygon fill="black" stroke="black" points="621.28,-324.5 631.28,-321 621.28,-317.5 621.28,-324.5"/>
</g>
<!-- AuthService -->
<g id="node8" class="node">
<title>AuthService</title>
<ellipse fill="#fdb462" stroke="black" cx="215" cy="-180" rx="59.11" ry="18"/>
<text text-anchor="middle" x="215" y="-175.8" font-family="Times,serif" font-size="14.00">AuthService</text>
</g>
<!-- AuthService&#45;&gt;AuthModule -->
<g id="edge8" class="edge">
<title>AuthService&#45;&gt;AuthModule</title>
<path fill="none" stroke="black" d="M215,-198.24C215,-205.43 215,-212 215,-212 215,-212 624.59,-212 624.59,-212 624.59,-212 624.59,-227.85 624.59,-227.85"/>
<polygon fill="black" stroke="black" points="621.09,-227.85 624.59,-237.85 628.09,-227.85 621.09,-227.85"/>
</g>
<!-- JwtStrategy -->
<g id="node9" class="node">
<title>JwtStrategy</title>
<ellipse fill="#fdb462" stroke="black" cx="81" cy="-180" rx="56.76" ry="18"/>
<text text-anchor="middle" x="81" y="-175.8" font-family="Times,serif" font-size="14.00">JwtStrategy</text>
</g>
<!-- JwtStrategy&#45;&gt;AuthModule -->
<g id="edge9" class="edge">
<title>JwtStrategy&#45;&gt;AuthModule</title>
<path fill="none" stroke="black" d="M81,-198.04C81,-210.56 81,-225 81,-225 81,-225 595.41,-225 595.41,-225 595.41,-225 595.41,-227.97 595.41,-227.97"/>
<polygon fill="black" stroke="black" points="591.91,-227.97 595.41,-237.97 598.91,-227.97 591.91,-227.97"/>
</g>
<!-- PostService -->
<g id="node10" class="node">
<title>PostService</title>
<ellipse fill="#fdb462" stroke="black" cx="722" cy="-104" rx="56.76" ry="18"/>
<text text-anchor="middle" x="722" y="-99.8" font-family="Times,serif" font-size="14.00">PostService</text>
</g>
<!-- PostService&#45;&gt;PostModule -->
<g id="edge10" class="edge">
<title>PostService&#45;&gt;PostModule</title>
<path fill="none" stroke="black" d="M722,-122.01C722,-122.01 722,-151.85 722,-151.85"/>
<polygon fill="black" stroke="black" points="718.5,-151.85 722,-161.85 725.5,-151.85 718.5,-151.85"/>
</g>
<!-- UserService -->
<g id="node12" class="node">
<title>UserService</title>
<ellipse fill="#fdb462" stroke="black" cx="966" cy="-256" rx="58.44" ry="18"/>
<text text-anchor="middle" x="966" y="-251.8" font-family="Times,serif" font-size="14.00">UserService</text>
</g>
<!-- UserService&#45;&gt;UserModule -->
<g id="edge12" class="edge">
<title>UserService&#45;&gt;UserModule</title>
<path fill="none" stroke="black" d="M910.79,-262C879.48,-262 846.49,-262 846.49,-262 846.49,-262 846.49,-208.2 846.49,-208.2"/>
<polygon fill="black" stroke="black" points="849.99,-208.2 846.49,-198.2 842.99,-208.2 849.99,-208.2"/>
</g>
</g>
</svg>
