<?xml version="1.0" encoding="UTF-8" standalone="no"?>
<!DOCTYPE svg PUBLIC "-//W3C//DTD SVG 1.1//EN"
 "http://www.w3.org/Graphics/SVG/1.1/DTD/svg11.dtd">
<!-- Generated by graphviz version 2.47.0 (20210316.0004)
 -->
<!-- Title: dependencies Pages: 1 -->
<svg width="602pt" height="211pt"
 viewBox="0.00 0.00 602.00 211.00" xmlns="http://www.w3.org/2000/svg" xmlns:xlink="http://www.w3.org/1999/xlink">
<g id="graph0" class="graph" transform="scale(1 1) rotate(0) translate(4 207)">
<title>dependencies</title>
<polygon fill="white" stroke="transparent" points="-4,4 -4,-207 598,-207 598,4 -4,4"/>
<text text-anchor="start" x="276.01" y="-42.4" font-family="Times-12" font-weight="bold" font-size="14.00">Legend</text>
<polygon fill="#ffffb3" stroke="transparent" points="63,-10 63,-30 83,-30 83,-10 63,-10"/>
<text text-anchor="start" x="86.63" y="-15.4" font-family="Times-12" font-size="14.00"> &#160;Declarations</text>
<polygon fill="#8dd3c7" stroke="transparent" points="176,-10 176,-30 196,-30 196,-10 176,-10"/>
<text text-anchor="start" x="199.73" y="-15.4" font-family="Times-12" font-size="14.00"> &#160;Module</text>
<polygon fill="#80b1d3" stroke="transparent" points="262,-10 262,-30 282,-30 282,-10 262,-10"/>
<text text-anchor="start" x="285.78" y="-15.4" font-family="Times-12" font-size="14.00"> &#160;Bootstrap</text>
<polygon fill="#fdb462" stroke="transparent" points="359,-10 359,-30 379,-30 379,-10 359,-10"/>
<text text-anchor="start" x="382.67" y="-15.4" font-family="Times-12" font-size="14.00"> &#160;Providers</text>
<polygon fill="#fb8072" stroke="transparent" points="455,-10 455,-30 475,-30 475,-10 455,-10"/>
<text text-anchor="start" x="478.73" y="-15.4" font-family="Times-12" font-size="14.00"> &#160;Exports</text>
<g id="clust1" class="cluster">
<title>cluster_AppModule</title>
<polygon fill="none" stroke="black" stroke-dasharray="1,5" points="8,-70 8,-195 586,-195 586,-70 8,-70"/>
</g>
<g id="clust3" class="cluster">
<title>cluster_AppModule_imports</title>
<polygon fill="none" stroke="black" points="154,-78 154,-130 578,-130 578,-78 154,-78"/>
</g>
<g id="clust6" class="cluster">
<title>cluster_AppModule_providers</title>
<polygon fill="none" stroke="black" points="16,-78 16,-130 146,-130 146,-78 16,-78"/>
</g>
<!-- AuthModule -->
<g id="node1" class="node">
<title>AuthModule</title>
<polygon fill="#8dd3c7" stroke="black" points="569.55,-122 566.55,-126 545.55,-126 542.55,-122 482.45,-122 482.45,-86 569.55,-86 569.55,-122"/>
<text text-anchor="middle" x="526" y="-99.8" font-family="Times,serif" font-size="14.00">AuthModule</text>
</g>
<!-- AppModule -->
<g id="node5" class="node">
<title>AppModule</title>
<polygon fill="#8dd3c7" stroke="black" points="349.66,-187 346.66,-191 325.66,-191 322.66,-187 266.34,-187 266.34,-151 349.66,-151 349.66,-187"/>
<text text-anchor="middle" x="308" y="-164.8" font-family="Times,serif" font-size="14.00">AppModule</text>
</g>
<!-- AuthModule&#45;&gt;AppModule -->
<g id="edge1" class="edge">
<title>AuthModule&#45;&gt;AppModule</title>
<path fill="none" stroke="black" d="M526,-122.28C526,-143.32 526,-175 526,-175 526,-175 359.77,-175 359.77,-175"/>
<polygon fill="black" stroke="black" points="359.77,-171.5 349.77,-175 359.77,-178.5 359.77,-171.5"/>
</g>
<!-- HealthModule -->
<g id="node2" class="node">
<title>HealthModule</title>
<polygon fill="#8dd3c7" stroke="black" points="464.37,-122 461.37,-126 440.37,-126 437.37,-122 367.63,-122 367.63,-86 464.37,-86 464.37,-122"/>
<text text-anchor="middle" x="416" y="-99.8" font-family="Times,serif" font-size="14.00">HealthModule</text>
</g>
<!-- HealthModule&#45;&gt;AppModule -->
<g id="edge2" class="edge">
<title>HealthModule&#45;&gt;AppModule</title>
<path fill="none" stroke="black" d="M416,-122.02C416,-139.37 416,-163 416,-163 416,-163 359.76,-163 359.76,-163"/>
<polygon fill="black" stroke="black" points="359.76,-159.5 349.76,-163 359.76,-166.5 359.76,-159.5"/>
</g>
<!-- PostModule -->
<g id="node3" class="node">
<title>PostModule</title>
<polygon fill="#8dd3c7" stroke="black" points="349.67,-122 346.67,-126 325.67,-126 322.67,-122 266.33,-122 266.33,-86 349.67,-86 349.67,-122"/>
<text text-anchor="middle" x="308" y="-99.8" font-family="Times,serif" font-size="14.00">PostModule</text>
</g>
<!-- PostModule&#45;&gt;AppModule -->
<g id="edge3" class="edge">
<title>PostModule&#45;&gt;AppModule</title>
<path fill="none" stroke="black" d="M308,-122.11C308,-122.11 308,-140.99 308,-140.99"/>
<polygon fill="black" stroke="black" points="304.5,-140.99 308,-150.99 311.5,-140.99 304.5,-140.99"/>
</g>
<!-- UserModule -->
<g id="node4" class="node">
<title>UserModule</title>
<polygon fill="#8dd3c7" stroke="black" points="247.98,-122 244.98,-126 223.98,-126 220.98,-122 162.02,-122 162.02,-86 247.98,-86 247.98,-122"/>
<text text-anchor="middle" x="205" y="-99.8" font-family="Times,serif" font-size="14.00">UserModule</text>
</g>
<!-- UserModule&#45;&gt;AppModule -->
<g id="edge4" class="edge">
<title>UserModule&#45;&gt;AppModule</title>
<path fill="none" stroke="black" d="M205,-122.02C205,-139.37 205,-163 205,-163 205,-163 256.11,-163 256.11,-163"/>
<polygon fill="black" stroke="black" points="256.11,-166.5 266.11,-163 256.11,-159.5 256.11,-166.5"/>
</g>
<!-- AppService -->
<g id="node6" class="node">
<title>AppService</title>
<ellipse fill="#fdb462" stroke="black" cx="81" cy="-104" rx="56.74" ry="18"/>
<text text-anchor="middle" x="81" y="-99.8" font-family="Times,serif" font-size="14.00">AppService</text>
</g>
<!-- AppService&#45;&gt;AppModule -->
<g id="edge5" class="edge">
<title>AppService&#45;&gt;AppModule</title>
<path fill="none" stroke="black" d="M81,-122.28C81,-143.32 81,-175 81,-175 81,-175 256.1,-175 256.1,-175"/>
<polygon fill="black" stroke="black" points="256.1,-178.5 266.1,-175 256.1,-171.5 256.1,-178.5"/>
</g>
</g>
</svg>
